P3
20 20
255
165 4 83 165 4 83 165 4 83 165 4 83 165 4 83 165 4 83 165 4 83 165 4 83 165 4 83 165 4 83 165 4 83 165 4 83 165 4 83 165 4 83 165 4 83 165 4 83 165 4 83 165 4 83 165 4 83 165 4 83 
165 4 83 242 159 89 242 159 89 242 159 89 165 4 83 165 4 83 165 4 83 165 4 83 165 4 83 165 4 83 165 4 83 165 4 83 165 4 83 165 4 83 165 4 83 165 4 83 245 192 44 245 192 44 245 192 44 165 4 83 
165 4 83 242 159 89 242 159 89 242 159 89 165 4 83 165 4 83 165 4 83 165 4 83 165 4 83 165 4 83 165 4 83 165 4 83 165 4 83 165 4 83 165 4 83 165 4 83 245 192 44 245 192 44 245 192 44 165 4 83 
165 4 83 242 159 89 242 159 89 242 159 89 165 4 83 165 4 83 165 4 83 165 4 83 165 4 83 165 4 83 165 4 83 165 4 83 165 4 83 165 4 83 165 4 83 165 4 83 245 192 44 245 192 44 245 192 44 165 4 83 
165 4 83 242 159 89 242 159 89 242 159 89 165 4 83 165 4 83 165 4 83 165 4 83 165 4 83 165 4 83 165 4 83 165 4 83 165 4 83 165 4 83 165 4 83 165 4 83 245 192 44 245 192 44 245 192 44 165 4 83 
165 4 83 242 159 89 242 159 89 242 159 89 165 4 83 165 4 83 165 4 83 165 4 83 165 4 83 165 4 83 165 4 83 165 4 83 165 4 83 165 4 83 165 4 83 165 4 83 245 192 44 245 192 44 245 192 44 165 4 83 
165 4 83 242 159 89 242 159 89 242 159 89 165 4 83 165 4 83 165 4 83 165 4 83 165 4 83 165 4 83 165 4 83 165 4 83 165 4 83 165 4 83 165 4 83 165 4 83 245 192 44 245 192 44 245 192 44 165 4 83 
165 4 83 165 4 83 242 159 89 242 159 89 165 4 83 165 4 83 165 4 83 165 4 83 165 4 83 165 4 83 165 4 83 165 4 83 165 4 83 165 4 83 165 4 83 165 4 83 165 4 83 165 4 83 165 4 83 165 4 83 
165 4 83 242 159 89 165 4 83 165 4 83 242 159 89 165 4 83 165 4 83 165 4 83 165 4 83 183 57 75 183 57 75 183 57 75 165 4 83 165 4 83 165 4 83 165 4 83 165 4 83 165 4 83 165 4 83 165 4 83 
165 4 83 242 159 89 165 4 83 165 4 83 242 159 89 165 4 83 165 4 83 165 4 83 183 57 75 183 57 75 183 57 75 183 57 75 183 57 75 165 4 83 165 4 83 165 4 83 165 4 83 165 4 83 165 4 83 165 4 83 
165 4 83 165 4 83 242 159 89 242 159 89 165 4 83 165 4 83 165 4 83 183 57 75 183 57 75 183 57 75 183 57 75 183 57 75 183 57 75 183 57 75 165 4 83 165 4 83 165 4 83 165 4 83 165 4 83 165 4 83 
165 4 83 165 4 83 165 4 83 165 4 83 165 4 83 165 4 83 183 57 75 183 57 75 183 57 75 183 57 75 183 57 75 183 57 75 183 57 75 183 57 75 183 57 75 165 4 83 165 4 83 165 4 83 165 4 83 165 4 83 
165 4 83 165 4 83 165 4 83 165 4 83 165 4 83 165 4 83 165 4 83 165 4 83 165 4 83 165 4 83 165 4 83 165 4 83 165 4 83 165 4 83 165 4 83 165 4 83 165 4 83 165 4 83 165 4 83 165 4 83 
165 4 83 165 4 83 165 4 83 165 4 83 165 4 83 165 4 83 165 4 83 165 4 83 165 4 83 165 4 83 165 4 83 165 4 83 165 4 83 165 4 83 165 4 83 165 4 83 165 4 83 165 4 83 165 4 83 165 4 83 
165 4 83 165 4 83 165 4 83 165 4 83 165 4 83 165 4 83 165 4 83 165 4 83 165 4 83 165 4 83 165 4 83 165 4 83 165 4 83 165 4 83 165 4 83 165 4 83 165 4 83 165 4 83 165 4 83 165 4 83 
165 4 83 240 225 133 165 4 83 165 4 83 165 4 83 165 4 83 165 4 83 165 4 83 165 4 83 165 4 83 165 4 83 165 4 83 165 4 83 165 4 83 165 4 83 165 4 83 165 4 83 165 4 83 240 225 133 165 4 83 
165 4 83 240 225 133 165 4 83 165 4 83 165 4 83 165 4 83 165 4 83 165 4 83 240 225 133 240 225 133 240 225 133 240 225 133 240 225 133 165 4 83 165 4 83 165 4 83 165 4 83 165 4 83 240 225 133 165 4 83 
165 4 83 240 225 133 240 225 133 240 225 133 240 225 133 240 225 133 240 225 133 240 225 133 240 225 133 240 225 133 240 225 133 240 225 133 240 225 133 240 225 133 240 225 133 240 225 133 240 225 133 240 225 133 240 225 133 165 4 83 
165 4 83 240 225 133 240 225 133 240 225 133 240 225 133 240 225 133 240 225 133 240 225 133 240 225 133 240 225 133 240 225 133 240 225 133 240 225 133 240 225 133 240 225 133 240 225 133 240 225 133 240 225 133 240 225 133 165 4 83 
165 4 83 165 4 83 165 4 83 165 4 83 165 4 83 165 4 83 165 4 83 165 4 83 165 4 83 165 4 83 165 4 83 165 4 83 165 4 83 165 4 83 165 4 83 165 4 83 165 4 83 165 4 83 165 4 83 165 4 83 
