P3
20 20
255
165 4 83 165 4 83 165 4 83 165 4 83 165 4 83 165 4 83 165 4 83 165 4 83 165 4 83 165 4 83 165 4 83 165 4 83 165 4 83 165 4 83 165 4 83 165 4 83 165 4 83 165 4 83 165 4 83 165 4 83 
165 4 83 165 4 83 165 4 83 165 4 83 165 4 83 165 4 83 165 4 83 165 4 83 165 4 83 165 4 83 165 4 83 165 4 83 165 4 83 165 4 83 165 4 83 165 4 83 165 4 83 165 4 83 165 4 83 165 4 83 
165 4 83 165 4 83 165 4 83 165 4 83 165 4 83 165 4 83 165 4 83 165 4 83 165 4 83 165 4 83 165 4 83 165 4 83 165 4 83 165 4 83 165 4 83 165 4 83 165 4 83 165 4 83 165 4 83 165 4 83 
165 4 83 165 4 83 165 4 83 165 4 83 50 244 93 50 244 93 165 4 83 165 4 83 165 4 83 165 4 83 165 4 83 165 4 83 165 4 83 82 6 87 82 6 87 165 4 83 165 4 83 165 4 83 165 4 83 165 4 83 
165 4 83 165 4 83 165 4 83 50 244 93 50 244 93 50 244 93 50 244 93 165 4 83 165 4 83 165 4 83 165 4 83 165 4 83 82 6 87 82 6 87 82 6 87 82 6 87 165 4 83 165 4 83 165 4 83 165 4 83 
165 4 83 165 4 83 165 4 83 50 244 93 50 244 93 50 244 93 50 244 93 165 4 83 165 4 83 165 4 83 165 4 83 165 4 83 82 6 87 82 6 87 82 6 87 82 6 87 165 4 83 165 4 83 165 4 83 165 4 83 
165 4 83 165 4 83 165 4 83 165 4 83 50 244 93 50 244 93 165 4 83 165 4 83 165 4 83 165 4 83 165 4 83 165 4 83 165 4 83 82 6 87 82 6 87 165 4 83 165 4 83 165 4 83 165 4 83 165 4 83 
165 4 83 165 4 83 165 4 83 165 4 83 165 4 83 165 4 83 165 4 83 165 4 83 165 4 83 153 31 81 153 31 81 165 4 83 165 4 83 165 4 83 165 4 83 165 4 83 165 4 83 165 4 83 165 4 83 165 4 83 
165 4 83 165 4 83 165 4 83 165 4 83 165 4 83 165 4 83 165 4 83 165 4 83 153 31 81 153 31 81 153 31 81 153 31 81 165 4 83 165 4 83 165 4 83 165 4 83 165 4 83 165 4 83 165 4 83 165 4 83 
165 4 83 165 4 83 165 4 83 165 4 83 165 4 83 165 4 83 165 4 83 165 4 83 153 31 81 153 31 81 153 31 81 153 31 81 165 4 83 165 4 83 165 4 83 165 4 83 165 4 83 165 4 83 165 4 83 165 4 83 
165 4 83 165 4 83 165 4 83 165 4 83 4 74 38 4 74 38 165 4 83 165 4 83 165 4 83 153 31 81 153 31 81 165 4 83 165 4 83 4 74 38 4 74 38 4 74 38 165 4 83 165 4 83 165 4 83 165 4 83 
165 4 83 165 4 83 165 4 83 4 74 38 4 74 38 4 74 38 4 74 38 165 4 83 165 4 83 165 4 83 165 4 83 165 4 83 4 74 38 4 74 38 4 74 38 4 74 38 4 74 38 165 4 83 165 4 83 165 4 83 
165 4 83 165 4 83 4 74 38 4 74 38 4 74 38 4 74 38 4 74 38 4 74 38 4 74 38 4 74 38 4 74 38 4 74 38 4 74 38 4 74 38 4 74 38 4 74 38 4 74 38 4 74 38 165 4 83 165 4 83 
165 4 83 165 4 83 4 74 38 4 74 38 4 74 38 4 74 38 4 74 38 4 74 38 4 74 38 4 74 38 4 74 38 4 74 38 4 74 38 4 74 38 4 74 38 4 74 38 4 74 38 4 74 38 4 74 38 4 74 38 
165 4 83 165 4 83 165 4 83 4 74 38 4 74 38 4 74 38 4 74 38 4 74 38 4 74 38 4 74 38 4 74 38 4 74 38 4 74 38 4 74 38 4 74 38 4 74 38 4 74 38 4 74 38 4 74 38 4 74 38 
165 4 83 165 4 83 165 4 83 165 4 83 4 74 38 4 74 38 4 74 38 4 74 38 4 74 38 4 74 38 4 74 38 4 74 38 4 74 38 4 74 38 4 74 38 4 74 38 4 74 38 4 74 38 4 74 38 4 74 38 
165 4 83 165 4 83 165 4 83 165 4 83 165 4 83 165 4 83 165 4 83 165 4 83 165 4 83 165 4 83 165 4 83 165 4 83 165 4 83 4 74 38 4 74 38 4 74 38 4 74 38 4 74 38 4 74 38 4 74 38 
165 4 83 165 4 83 165 4 83 165 4 83 165 4 83 165 4 83 165 4 83 165 4 83 165 4 83 165 4 83 165 4 83 165 4 83 165 4 83 4 74 38 4 74 38 4 74 38 4 74 38 4 74 38 4 74 38 4 74 38 
165 4 83 165 4 83 165 4 83 165 4 83 165 4 83 165 4 83 165 4 83 165 4 83 165 4 83 165 4 83 165 4 83 165 4 83 165 4 83 165 4 83 4 74 38 4 74 38 4 74 38 4 74 38 4 74 38 4 74 38 
165 4 83 165 4 83 165 4 83 165 4 83 165 4 83 165 4 83 165 4 83 165 4 83 165 4 83 165 4 83 165 4 83 165 4 83 165 4 83 165 4 83 4 74 38 4 74 38 4 74 38 4 74 38 4 74 38 4 74 38 
